# xmcd
#
# Track frame offsets: 
#        150
#        16294
#        34574
#        51705
#        67078
#        79108
#        98607
#        116923
#        131630
#        148595
#        163884
#        182362
#
# Disc length: 2749 seconds
#
# Revision: 0
# Processed by: cddbd v1.5.2PL0 Copyright (c) Steve Scherf et al.
# Submitted via: ExactAudioCopy v0.95b4
#
DISCID=a70abb0c
DTITLE=Gravy - Back in the Day
DYEAR=2006
DGENRE=Country
TTITLE0=Beer and Wine
TTITLE1=Come and Go
TTITLE2=Redneck Women
TTITLE3=Hope
TTITLE4=The Pickup Truck Song
TTITLE5=Back in the Day
TTITLE6=Hallucination
TTITLE7=Exit 333
TTITLE8=Limbo
TTITLE9=Sweet Caroline
TTITLE10=Too Little Too Late
TTITLE11=Quicksand
EXTD=
EXTT0=
EXTT1=
EXTT2=
EXTT3=
EXTT4=
EXTT5=
EXTT6=
EXTT7=
EXTT8=
EXTT9=
EXTT10=
EXTT11=
PLAYORDER=
